<svg xmlns="http://www.w3.org/2000/svg" xmlns:xlink="http://www.w3.org/1999/xlink" width="1200" height="1200" viewBox="0 0 1200 1200"><g><g transform="translate(600 600) scale(-0.69 0.69) rotate(15) translate(-600 -600)" style="fill:#000000"><svg fill="#000000" xmlns="http://www.w3.org/2000/svg" xmlns:xlink="http://www.w3.org/1999/xlink" version="1.1" x="0px" y="0px" viewBox="0 0 100 100" enable-background="new 0 0 100 100" xml:space="preserve"><g><path fill="none" d="M57.564,67.52c-1.757,0.875-3.58,0.668-5.383,0.32c-2.202-0.425-4.302-1.168-6.338-2.145   c-5.699-2.736-10.262-6.903-14.593-11.38c-0.389-0.404-0.841-0.745-1.339-1.179c-0.813,1.424-1.558,2.638-2.212,3.898   c-1.039,2.001-0.941,3.038,0.681,4.651c1.145,1.14,2.389,2.253,3.771,3.068c4.028,2.376,8.113,4.66,12.242,6.854   c2.158,1.145,4.49,1.905,6.971,2.085c1.859,0.137,3.413-0.486,4.623-1.874c1.066-1.223,1.945-2.577,2.546-4.206   C58.123,67.566,57.779,67.413,57.564,67.52z"></path><path fill="none" d="M78.123,40.848c-2.379,0.796-4.906,1.287-6.988,2.923c-1.053,0.83-2.532-0.185-2.49-1.572   c0.011-0.398,0.106-0.803,0.218-1.189c0.597-2.073,1.579-3.957,2.804-5.725c0.87-1.252,1.723-2.517,2.565-3.789   c1.906-2.882,3.86-5.735,5.683-8.669c1.837-2.956,3.231-6.131,3.761-9.594c0.179-1.174,0.096-2.454-0.175-3.615   c-0.505-2.163-1.966-2.762-3.908-1.767c-0.541,0.277-1.059,0.617-1.536,0.993c-2.885,2.283-5.506,4.82-7.559,7.909   c-2.539,3.818-4.845,7.76-6.602,12.01c-0.622,1.501-1.32,2.974-2.058,4.422c-0.447,0.872-1.227,1.158-1.697,0.754   c-0.578-0.497-0.409-1.079-0.144-1.657c0.933-2.033,1.83-4.084,2.818-6.089c0.61-1.241,0.951-2.455,0.379-3.841   c-1.195-0.721-2.516-1.091-3.589,0.075c-1.299,1.409-2.489,2.949-3.536,4.557c-0.827,1.268-1.351,2.73-2.042,4.088   c-0.32,0.628-0.683,1.246-1.107,1.807c-0.131,0.173-0.575,0.262-0.79,0.177c-0.218-0.088-0.453-0.435-0.463-0.676   c-0.02-0.496,0.023-1.023,0.184-1.488c1.29-3.686,3.229-7,5.795-9.948c0.306-0.354,0.887-0.568,0.648-1.412   c-0.596-0.289-1.298-0.659-2.021-0.977c-2.042-0.897-3.78-0.4-5.21,1.237c-0.668,0.764-1.338,1.549-1.857,2.414   c-1.1,1.827-2.108,3.711-3.141,5.579c-0.689,1.246-1.34,2.511-2.049,3.745c-0.246,0.43-0.591,0.841-1.365,0.625   c-0.069-0.303-0.291-0.706-0.213-1.036c1.196-5.035,4.075-9.211,7.181-13.539c-1.62-0.637-2.758-0.266-3.864,0.325   c-1.558,0.832-2.871,1.945-3.695,3.528c-1.833,3.515-3.708,7.012-5.408,10.592c-1.088,2.288-2.016,4.67-2.802,7.079   c-1.299,3.984-1.732,8.123-1.735,12.303c0,0.47,0.164,1.029,0.451,1.387c0.569,0.707,1.233,1.357,1.936,1.933   c1.968,1.611,4,3.144,5.961,4.761c2.299,1.895,4.886,3.296,7.565,4.54c2.236,1.039,4.616,1.542,7.069,1.752   c1.169,0.1,2.233-0.087,3.161-0.82c2.151-1.699,4.399-3.296,6.418-5.139c4.703-4.301,9.716-8.039,15.94-9.856   c0.678-0.199,1.321-0.526,1.969-0.817c1.135-0.51,1.715-1.427,1.745-2.642c0.021-0.803,0.051-1.655-0.18-2.407   C83.125,40.771,82.3,39.45,78.123,40.848z"></path><path d="M85.012,40.828c-1.037-1.61-2.449-2.472-4.322-2.324c-1.301,0.101-2.589,0.464-3.867,0.778   c-1.647,0.406-3.22,1.149-5.165,1.253c0.101-0.545,0.078-0.957,0.249-1.256c0.758-1.322,1.504-2.659,2.382-3.9   c1.816-2.573,3.709-5.094,5.58-7.63c3.001-4.066,5.138-8.521,6.159-13.491c0.418-2.042,0.365-4.064-0.376-6.012   c-1.119-2.942-3.865-4.04-6.703-2.644c-1.083,0.533-2.092,1.263-3.036,2.021c-3.442,2.764-6.317,6.03-8.604,9.821   c-0.722,1.196-1.342,2.486-2.381,3.509c-1.749-0.607-3.15-1.566-4.545-2.58c-2.727-1.986-5.658-3.264-9.12-1.951   c-2.589-2.308-5.148-1.559-7.661-0.061c-1.501,0.894-2.791,2.068-3.708,3.566c-0.74,1.208-1.372,2.488-1.996,3.765   c-0.89,1.822-1.66,3.704-2.603,5.497c-2.289,4.348-4.166,8.849-4.853,13.738c-0.352,2.508-0.365,5.063-0.516,7.359   c-1.532,2.085-2.963,4.035-4.486,6.108c-2.529-0.291-4.231,1.212-5.619,3.013c-1.922,2.492-3.685,5.111-5.431,7.732   c-0.49,0.737-0.772,1.654-0.964,2.532c-0.079,0.356,0.342,0.822,0.556,1.284c1.285-0.407,1.653-1.415,2.161-2.256   c1.844-3.054,3.816-6.013,6.206-8.673c0.539-0.6,1.025-1.304,2.145-1.146c0.42,3.25,2.697,5.267,5.148,7.132   c0.888,0.675,1.844,1.272,2.817,1.823c3.096,1.756,6.196,3.508,9.331,5.192c3.527,1.895,7.181,3.357,11.322,3.086   c1.164-0.076,1.909,0.825,1.734,1.952c-0.108,0.699-0.286,1.404-0.556,2.055c-0.585,1.407-1.186,2.813-1.893,4.163   c-1.039,1.979-2.187,3.904-3.265,5.864c-0.587,1.068-1.186,2.139-1.655,3.259c-0.161,0.385-0.117,1.12,0.143,1.362   c0.527,0.493,1.142,0.12,1.59-0.327c0.431-0.428,0.861-0.875,1.199-1.376c2.451-3.637,4.632-7.419,6.153-11.549   c0.279-0.759,0.503-1.55,0.637-2.347c0.116-0.688,0.193-1.43,0.056-2.1c-0.153-0.752-0.565-1.45-0.843-2.119   c2.481-2.752,4.673-5.525,5.05-8.788c2.598-2.575,4.884-4.882,7.221-7.136c0.799-0.769,1.69-1.455,2.599-2.093   c2.768-1.946,5.811-3.327,9.04-4.333c1.256-0.393,2.49-0.903,3.659-1.504c1.423-0.731,2.505-1.921,2.583-3.551   C86.675,45.198,86.347,42.899,85.012,40.828z M55.988,71.818c-1.21,1.388-2.764,2.011-4.623,1.874   c-2.482-0.181-4.813-0.94-6.971-2.085c-4.129-2.194-8.215-4.478-12.242-6.854c-1.382-0.816-2.626-1.929-3.771-3.068   c-1.622-1.613-1.72-2.65-0.681-4.651c0.654-1.26,1.399-2.474,2.212-3.898c0.498,0.434,0.95,0.775,1.339,1.179   c4.332,4.477,8.894,8.644,14.593,11.38c2.036,0.977,4.135,1.72,6.338,2.145c1.803,0.348,3.626,0.555,5.383-0.32   c0.215-0.107,0.559,0.046,0.97,0.093C57.933,69.241,57.054,70.596,55.988,71.818z M84.331,46.503   c-0.031,1.215-0.61,2.132-1.745,2.642c-0.648,0.29-1.291,0.618-1.969,0.817c-6.224,1.817-11.237,5.555-15.94,9.856   c-2.019,1.844-4.267,3.44-6.418,5.139c-0.928,0.733-1.993,0.92-3.161,0.82c-2.453-0.21-4.833-0.713-7.069-1.752   c-2.679-1.245-5.266-2.645-7.565-4.54c-1.962-1.617-3.993-3.15-5.961-4.761c-0.703-0.577-1.367-1.227-1.936-1.933   c-0.287-0.358-0.451-0.917-0.451-1.387c0.003-4.179,0.436-8.318,1.735-12.303c0.786-2.409,1.715-4.791,2.802-7.079   c1.699-3.579,3.575-7.076,5.408-10.592c0.824-1.583,2.138-2.696,3.695-3.528c1.106-0.591,2.244-0.962,3.864-0.325   c-3.106,4.327-5.985,8.504-7.181,13.539c-0.079,0.331,0.144,0.734,0.213,1.036c0.774,0.216,1.119-0.195,1.365-0.625   c0.709-1.234,1.36-2.5,2.049-3.745c1.034-1.867,2.042-3.751,3.141-5.579c0.519-0.865,1.189-1.65,1.857-2.414   c1.43-1.637,3.169-2.134,5.21-1.237c0.723,0.318,1.425,0.688,2.021,0.977c0.239,0.844-0.341,1.058-0.648,1.412   c-2.566,2.948-4.505,6.262-5.795,9.948c-0.161,0.465-0.204,0.992-0.184,1.488c0.01,0.242,0.245,0.588,0.463,0.676   c0.215,0.085,0.66-0.004,0.79-0.177c0.424-0.562,0.786-1.179,1.107-1.807c0.692-1.358,1.215-2.821,2.042-4.088   c1.047-1.608,2.237-3.148,3.536-4.557c1.074-1.165,2.394-0.796,3.589-0.075c0.572,1.386,0.231,2.6-0.379,3.841   c-0.988,2.005-1.885,4.056-2.818,6.089c-0.266,0.578-0.434,1.161,0.144,1.657c0.469,0.404,1.25,0.118,1.697-0.754   c0.737-1.448,1.436-2.921,2.058-4.422c1.757-4.25,4.064-8.192,6.602-12.01c2.054-3.088,4.674-5.625,7.559-7.909   c0.477-0.376,0.995-0.716,1.536-0.993c1.942-0.994,3.403-0.396,3.908,1.767c0.27,1.161,0.353,2.441,0.175,3.615   c-0.53,3.463-1.924,6.638-3.761,9.594c-1.823,2.934-3.777,5.787-5.683,8.669c-0.842,1.272-1.696,2.537-2.565,3.789   c-1.225,1.768-2.208,3.652-2.804,5.725c-0.112,0.386-0.207,0.791-0.218,1.189c-0.042,1.387,1.437,2.402,2.49,1.572   c2.082-1.636,4.609-2.127,6.988-2.923c4.177-1.398,5.003-0.076,6.029,3.249C84.382,44.848,84.352,45.7,84.331,46.503z"></path></g></svg></g></g></svg>